<svg width="20" height="20" viewBox="0 0 37 35" fill="none" xmlns="http://www.w3.org/2000/svg">
<path d="M4.49722 29.2186C5.49077 28.1984 7.14669 28.1984 8.14023 29.2186L12.004 33.1862C12.9976 34.2065 12.556 35 11.2313 35H1.29579C-0.139334 35 -0.360123 34.0931 0.523031 33.1862L4.49722 29.2186ZM36.4012 7.68016C37.2843 6.54656 37.1739 4.73279 36.1804 3.71255L33.3101 0.765182C32.3166 -0.255061 30.6607 -0.255061 29.6671 0.765182L9.13378 21.17C8.14023 22.1903 8.14023 23.8907 9.13378 24.9109L15.9782 31.9393C16.9718 32.9595 18.5173 32.8462 19.2901 31.7126L36.4012 7.68016Z" fill="url(#paint0_linear_19_503)"/>
<defs>
<linearGradient id="paint0_linear_19_503" x1="49.0718" y1="-27.4227" x2="-5.55985" y2="53.526" gradientUnits="userSpaceOnUse">
<stop stop-color="#FC7E3F"/>
<stop offset="1" stop-color="#FB606C"/>
</linearGradient>
</defs>
</svg>
