<svg width="106" height="54" viewBox="0 0 106 54" fill="none" xmlns="http://www.w3.org/2000/svg">
<path opacity="0.16" d="M104 17.5001C104.5 19.3001 104.4 21.4001 103.6 23.5001L96 43.5001C93.9 49.0001 87.8 52.2001 82.5 50.7001L64.4 45.6001C62.8 45.1001 61.4 44.2001 60.5 43.0001C61.2 45.5001 63.1 47.6001 65.8 48.3001L83.9 53.4001C89.2 54.9001 95.3 51.7001 97.4 46.2001L105 26.2001C106.2 22.9001 105.7 19.7001 104 17.5001Z" fill="white"/>
<path opacity="0.66" d="M104 17.5C103.2 14.6 100.8 12.3 97.2999 11.7L78.4999 8.40004C73.5999 7.60004 68.1999 10.9 66.2999 15.9L59.3999 34C58.1999 37.2 58.6999 40.5 60.3999 42.8C61.3999 44 62.6999 45 64.2999 45.4L82.3999 50.5C87.6999 52 93.7999 48.8 95.8999 43.3L103.5 23.3C104.4 21.3 104.5 19.3 104 17.5Z" fill="url(#paint0_radial_11_82)"/>
<path d="M78.7998 21.6C79.6998 19.2 82.2998 17.7 84.5998 18.1C86.8998 18.6 88.0998 20.9 87.1998 23.3L84.3998 30.6C83.4998 33 80.7998 34.5 78.4998 34C76.1998 33.5 75.0998 31.1 75.9998 28.7L78.7998 21.6Z" fill="white"/>
<path d="M74.8999 26.2C75.2999 26.3 75.4999 26.7 75.2999 27.1L74.7999 28.5C73.5999 31.6 75.0999 34.8 78.0999 35.5C81.1999 36.3 84.6999 34.3 85.8999 31L86.4999 29.5C86.6999 29.1 87.0999 28.8 87.4999 28.9C87.8999 29 88.0999 29.4 87.8999 29.8L87.2999 31.3C85.8999 35.1 81.8999 37.5 78.1999 37L77.0999 39.9L81.2999 41C81.6999 41.1 81.8999 41.5 81.6999 41.9C81.4999 42.3 81.0999 42.5 80.6999 42.4L71.0999 39.9C70.6999 39.8 70.5999 39.4 70.6999 39C70.7999 38.6 71.2999 38.4 71.5999 38.5L75.6999 39.5L76.7999 36.6C73.3999 35.4 71.9999 31.7 73.3999 28.1L73.8999 26.7C74.0999 26.3 74.4999 26.1 74.8999 26.2Z" fill="white"/>
<path opacity="0.16" d="M21 0.499967C23.3 0.999967 25.3 2.79997 26 5.39997L30.2 19.6C31.4 23.5 29.2 27.5 25.5 28.4L12.8 31.6C12.7 31.6 12.6 31.6 12.5 31.7C13.4 31.9 14.4 32 15.4 31.7L28.1 28.5C31.8 27.6 34 23.6 32.8 19.7L28.6 5.49997C27.6 1.89997 24.3 -0.100033 21 0.499967Z" fill="white"/>
<path opacity="0.66" d="M20.9999 0.499995C19.7999 0.199995 18.4999 0.299995 17.2999 0.699995L4.99993 5.1C1.79993 6.3 0.0999384 10.1 1.19994 13.6L4.99993 26.5C5.99993 30 9.29993 32.2 12.4999 31.5C12.5999 31.5 12.6999 31.5 12.7999 31.4L25.4999 28.2C29.1999 27.3 31.3999 23.3 30.1999 19.4L25.9999 5.39999C25.2999 2.79999 23.2999 0.999995 20.9999 0.499995Z" fill="url(#paint1_radial_11_82)"/>
<path d="M16.1999 23.6L10.9999 25.1C10.6999 25.2 10.2999 25 10.1999 24.6C10.0999 24.2 10.2999 23.9 10.5999 23.8L15.7999 22.3C16.0999 22.2 16.4999 22.4 16.5999 22.8C16.7999 23.2 16.5999 23.5 16.1999 23.6ZM22.2999 17.3L9.79988 21C9.49988 21.1 9.09989 20.9 8.99989 20.5C8.89989 20.1 9.09991 19.8 9.39991 19.7L21.8999 15.9C22.2999 15.8 22.5999 16 22.7999 16.4C22.7999 16.8 22.5999 17.2 22.2999 17.3ZM20.9999 13.1L8.59986 17C8.29986 17.1 7.89988 16.9 7.79988 16.5C7.69988 16.1 7.8999 15.8 8.1999 15.7L20.5999 11.7C20.9999 11.6 21.2999 11.8 21.4999 12.2C21.5999 12.6 21.3999 13 20.9999 13.1ZM19.6999 8.80002L7.29988 12.9C6.99988 13 6.59989 12.8 6.49989 12.4C6.39989 12 6.59991 11.7 6.89991 11.5L19.1999 7.30002C19.5999 7.20002 19.8999 7.40002 20.0999 7.80002C20.2999 8.30002 20.0999 8.70002 19.6999 8.80002Z" fill="white"/>
<defs>
<radialGradient id="paint0_radial_11_82" cx="0" cy="0" r="1" gradientUnits="userSpaceOnUse" gradientTransform="translate(138.063 -14.7317) scale(162.118 162.118)">
<stop stop-color="#589FFF"/>
<stop offset="1" stop-color="#9068FF"/>
</radialGradient>
<radialGradient id="paint1_radial_11_82" cx="0" cy="0" r="1" gradientUnits="userSpaceOnUse" gradientTransform="translate(38.7131 -31.7343) scale(106.281 106.281)">
<stop stop-color="#589FFF"/>
<stop offset="1" stop-color="#9068FF"/>
</radialGradient>
</defs>
</svg>
