<svg width="99" height="51" viewBox="0 0 99 51" fill="none" xmlns="http://www.w3.org/2000/svg">
<path opacity="0.16" d="M27.1001 46.6C23.2001 48.6 17.7001 46 14.9001 41L4.60009 22.5C2.90009 19.5 2.60009 16.4 3.50009 14C0.400086 16.1 -0.0999147 20.9 2.40009 25.4L12.7001 43.8C15.5001 48.9 21.0001 51.4 24.9001 49.4L38.2001 42.7C39.5001 42 40.4001 40.9 40.9001 39.5C40.7001 39.6 40.6001 39.7 40.4001 39.8L27.1001 46.6Z" fill="white"/>
<path opacity="0.66" d="M41.9001 28.2L32.4001 11.2C29.8001 6.5 24.7001 3.8 21.0001 5.2L6.90008 10.6C5.20008 11.2 4.10007 12.5 3.50007 14.2C2.60007 16.6 2.90008 19.7 4.60008 22.7L14.9001 41.1C17.7001 46.2 23.2001 48.7 27.1001 46.7L40.4001 40C40.6001 39.9 40.7001 39.8 40.9001 39.7C43.9001 37.6 44.4001 32.6 41.9001 28.2Z" fill="url(#paint0_radial_11_70)"/>
<path d="M14.6002 29.6C18.3002 36.3 25.5002 39.7 30.5002 37.3C35.4002 34.9 36.3002 27.9 32.8002 21.6C29.3002 15.3 22.4002 11.7 17.3002 13.7C12.2002 15.8 10.9002 22.9 14.6002 29.6ZM29.5002 35.4C27.6002 34.4 25.8002 32.9 24.2002 31L28.8002 28.9C29.5002 31.2 29.7002 33.4 29.5002 35.4ZM22.9002 29.4C21.7002 27.7 20.6002 25.8 19.8002 23.9L25.1002 21.6C26.3002 23.3 27.3002 25.1 28.1002 27L22.9002 29.4ZM32.7002 24.9L29.5002 26.4C28.7002 24.5 27.7002 22.7 26.5002 21L29.8002 19.6C30.5002 20.4 31.1002 21.2 31.6002 22.1C32.0002 23 32.4002 24 32.7002 24.9ZM18.4002 15.5C20.3002 16.5 22.1002 18.1 23.7002 19.9L19.1002 21.9C18.4002 19.6 18.2002 17.4 18.4002 15.5ZM21.4002 30L18.0002 31.6C16.6002 30 15.5002 28 14.9002 26L18.4002 24.5C19.1002 26.4 20.2002 28.3 21.4002 30ZM14.4002 23.9C14.0002 20.9 14.8002 18.3 16.6002 16.6C16.6002 18.5 17.0002 20.5 17.6002 22.5L14.4002 23.9ZM28.2002 18L25.2002 19.3C23.8002 17.6 22.3002 16.2 20.6002 15C23.1002 14.9 25.9002 16 28.2002 18ZM31.3002 34.2C31.2002 32.3 30.9002 30.3 30.2002 28.3L33.2002 26.9C33.6002 29.8 32.9002 32.5 31.3002 34.2ZM27.4002 36C24.9002 36.3 22.0002 35.2 19.6002 33.1L22.8002 31.6C24.1002 33.4 25.7002 34.8 27.4002 36Z" fill="white"/>
<path opacity="0.16" d="M71.2 3.29999C70.6 4.49999 70.5 5.99999 70.9 7.59999L74.5 21.8C75.5 25.7 79.1 28.8 82.6 28.7L94.4 28.3C95.1 28.3 95.7 28.1 96.3 27.8C95.6 29.2 94.4 30.1 92.7 30.1L80.9 30.5C77.5 30.6 73.8 27.5 72.8 23.6L69.2 9.39999C68.5 6.59999 69.4 4.29999 71.2 3.29999Z" fill="white"/>
<path opacity="0.66" d="M71.1999 3.29999C71.9999 1.69999 73.4999 0.799994 75.5999 0.899994L87.6999 1.7C90.8999 1.9 94.0999 4.99999 94.9999 8.59999L98.2999 21.6C98.9999 24.4 98.0999 26.8 96.2999 27.8C95.7999 28.1 95.0999 28.3 94.3999 28.3L82.5999 28.7C79.1999 28.8 75.4999 25.7 74.4999 21.8L70.8999 7.59999C70.4999 5.89999 70.5999 4.39999 71.1999 3.29999Z" fill="url(#paint1_radial_11_70)"/>
<path d="M85.0999 21.8L83.5999 18.4H80.6999C80.3999 18.4 80.0999 18.2 80.0999 17.8C79.9999 17.5 80.1999 17.2 80.4999 17.3H83.1999L80.9999 12.3L78.5999 12.2C78.2999 12.2 77.9999 11.9 77.9999 11.6C77.8999 11.3 78.0999 11.1 78.3999 11.1L80.5999 11.2L78.9999 7.99998C78.8999 7.69998 78.9999 7.39998 79.1999 7.39998C79.3999 7.29998 79.7999 7.49997 79.8999 7.79998L81.3999 11.2L85.6999 11.3L84.2999 8.19998C84.1999 7.89998 84.2999 7.59998 84.4999 7.59998C84.6999 7.59998 84.9999 7.69998 85.1999 7.99998L86.6999 11.3L89.4999 11.4C89.7999 11.4 89.9999 11.6 90.0999 11.9C90.1999 12.2 89.9999 12.4 89.7999 12.4L87.1999 12.3L89.3999 17.2H91.5999C91.8999 17.2 92.0999 17.4 92.1999 17.7C92.2999 18 92.0999 18.2 91.8999 18.2H89.8999L91.2999 21.3C91.3999 21.6 91.2999 21.9 91.0999 21.9C90.8999 22 90.5999 21.8 90.4999 21.5L88.9999 18.2H84.6999L86.0999 21.3C86.1999 21.6 86.0999 21.9 85.8999 22H85.7999C85.4999 22.2 85.1999 22 85.0999 21.8ZM86.1999 12.4L81.8999 12.3L84.0999 17.3H88.3999L86.1999 12.4Z" fill="white"/>
<defs>
<radialGradient id="paint0_radial_11_70" cx="0" cy="0" r="1" gradientUnits="userSpaceOnUse" gradientTransform="translate(35.0154 -40.6695) scale(124.904 124.904)">
<stop stop-color="#589FFF"/>
<stop offset="1" stop-color="#9068FF"/>
</radialGradient>
<radialGradient id="paint1_radial_11_70" cx="0" cy="0" r="1" gradientUnits="userSpaceOnUse" gradientTransform="translate(108.452 -32.294) scale(98.3096 98.3096)">
<stop stop-color="#589FFF"/>
<stop offset="1" stop-color="#9068FF"/>
</radialGradient>
</defs>
</svg>
